<svg width="24" height="25" viewBox="0 0 24 25" fill="none" xmlns="http://www.w3.org/2000/svg">
<g clip-path="url(#clip0_2136_9863)">
<path d="M12.75 20.75V3.50004C12.7499 3.3643 12.713 3.23114 12.6432 3.11473C12.5734 2.99833 12.4733 2.90305 12.3536 2.83906C12.2339 2.77507 12.099 2.74477 11.9635 2.75138C11.8279 2.75799 11.6967 2.80127 11.5838 2.8766L4.08375 7.87629C3.98088 7.94492 3.89658 8.03793 3.83835 8.14703C3.78012 8.25613 3.74977 8.37793 3.75 8.5016V20.75" stroke="#1ABC9C" stroke-width="1.5" stroke-linecap="round" stroke-linejoin="round"/>
<path d="M12.75 8.75H19.5C19.6989 8.75 19.8897 8.82902 20.0303 8.96967C20.171 9.11032 20.25 9.30109 20.25 9.5V20.75" stroke="#1ABC9C" stroke-width="1.5" stroke-linecap="round" stroke-linejoin="round"/>
<path d="M1.5 20.75H22.5" stroke="#1ABC9C" stroke-width="1.5" stroke-linecap="round" stroke-linejoin="round"/>
<path d="M9.75 11V12.5" stroke="#1ABC9C" stroke-width="1.5" stroke-linecap="round" stroke-linejoin="round"/>
<path d="M6.75 11V12.5" stroke="#1ABC9C" stroke-width="1.5" stroke-linecap="round" stroke-linejoin="round"/>
<path d="M6.75 16.25V17.75" stroke="#1ABC9C" stroke-width="1.5" stroke-linecap="round" stroke-linejoin="round"/>
<path d="M9.75 16.25V17.75" stroke="#1ABC9C" stroke-width="1.5" stroke-linecap="round" stroke-linejoin="round"/>
</g>
<defs>
<clipPath id="clip0_2136_9863">
<rect width="24" height="24" fill="white" transform="translate(0 0.5)"/>
</clipPath>
</defs>
</svg>
